<mxfile host="65bd71144e">
    <diagram id="sMnfMlpK5Hj1AKXF918x" name="Page-1">
        <mxGraphModel dx="1301" dy="905" grid="1" gridSize="10" guides="1" tooltips="1" connect="1" arrows="1" fold="1" page="1" pageScale="1" pageWidth="800" pageHeight="400" background="none" math="0" shadow="0">
            <root>
                <mxCell id="0"/>
                <mxCell id="1" parent="0"/>
                <mxCell id="27" value="" style="rounded=0;whiteSpace=wrap;html=1;shadow=0;sketch=0;comic=0;labelBackgroundColor=none;fillColor=#f5f5f5;fontColor=#333333;strokeColor=#000000;" parent="1" vertex="1">
                    <mxGeometry x="20" y="6" width="760" height="390" as="geometry"/>
                </mxCell>
                <mxCell id="2" value="" style="rounded=0;whiteSpace=wrap;html=1;shadow=0;sketch=0;comic=0;labelBackgroundColor=none;fillColor=#f5f5f5;fontColor=#333333;strokeColor=#000000;" parent="1" vertex="1">
                    <mxGeometry x="205" y="16" width="325" height="130" as="geometry"/>
                </mxCell>
                <mxCell id="3" value="Camera driver" style="rounded=0;whiteSpace=wrap;html=1;shadow=0;sketch=0;comic=0;labelBackgroundColor=none;fillColor=#f5f5f5;fontColor=#333333;strokeColor=#000000;" parent="1" vertex="1">
                    <mxGeometry x="395" y="66" width="120" height="60" as="geometry"/>
                </mxCell>
                <mxCell id="4" value="Image processing" style="rounded=0;whiteSpace=wrap;html=1;shadow=0;sketch=0;comic=0;labelBackgroundColor=none;fillColor=#f5f5f5;fontColor=#333333;strokeColor=#000000;" parent="1" vertex="1">
                    <mxGeometry x="225" y="66" width="120" height="60" as="geometry"/>
                </mxCell>
                <mxCell id="15" style="edgeStyle=none;html=1;fontColor=default;shadow=0;sketch=0;comic=0;labelBackgroundColor=none;fillColor=#f5f5f5;strokeColor=#000000;" parent="1" source="5" edge="1">
                    <mxGeometry relative="1" as="geometry">
                        <mxPoint x="200" y="305.9999999999998" as="targetPoint"/>
                    </mxGeometry>
                </mxCell>
                <mxCell id="5" value="" style="rounded=0;whiteSpace=wrap;html=1;shadow=0;sketch=0;comic=0;labelBackgroundColor=none;fillColor=#f5f5f5;fontColor=#333333;strokeColor=#000000;" parent="1" vertex="1">
                    <mxGeometry x="30" y="176" width="340" height="130" as="geometry"/>
                </mxCell>
                <mxCell id="6" value="Path correction" style="rounded=0;whiteSpace=wrap;html=1;shadow=0;sketch=0;comic=0;labelBackgroundColor=none;fillColor=#f5f5f5;fontColor=#333333;strokeColor=#000000;" parent="1" vertex="1">
                    <mxGeometry x="225" y="226" width="120" height="60" as="geometry"/>
                </mxCell>
                <mxCell id="29" style="edgeStyle=orthogonalEdgeStyle;html=1;exitX=0.5;exitY=1;exitDx=0;exitDy=0;entryX=0.5;entryY=1;entryDx=0;entryDy=0;strokeColor=#000000;" parent="1" source="7" target="9" edge="1">
                    <mxGeometry relative="1" as="geometry">
                        <Array as="points">
                            <mxPoint x="110" y="386"/>
                            <mxPoint x="500" y="386"/>
                        </Array>
                    </mxGeometry>
                </mxCell>
                <mxCell id="7" value="Motion planning" style="rounded=0;whiteSpace=wrap;html=1;shadow=0;sketch=0;comic=0;labelBackgroundColor=none;fillColor=#f5f5f5;fontColor=#333333;strokeColor=#000000;" parent="1" vertex="1">
                    <mxGeometry x="50" y="226" width="120" height="60" as="geometry"/>
                </mxCell>
                <mxCell id="8" value="" style="rounded=0;whiteSpace=wrap;html=1;shadow=0;sketch=0;comic=0;labelBackgroundColor=none;fillColor=#f5f5f5;fontColor=#333333;strokeColor=#000000;" parent="1" vertex="1">
                    <mxGeometry x="410" y="176" width="340" height="190" as="geometry"/>
                </mxCell>
                <mxCell id="9" value="Main control loop" style="rounded=0;whiteSpace=wrap;html=1;shadow=0;sketch=0;comic=0;labelBackgroundColor=none;fillColor=#f5f5f5;fontColor=#333333;strokeColor=#000000;" parent="1" vertex="1">
                    <mxGeometry x="440" y="286" width="120" height="60" as="geometry"/>
                </mxCell>
                <mxCell id="26" style="edgeStyle=elbowEdgeStyle;comic=0;sketch=0;html=1;shadow=0;labelBackgroundColor=none;fontColor=default;fillColor=#f5f5f5;strokeColor=#000000;" parent="1" source="10" target="6" edge="1">
                    <mxGeometry relative="1" as="geometry"/>
                </mxCell>
                <mxCell id="28" style="edgeStyle=orthogonalEdgeStyle;html=1;exitX=0;exitY=0.75;exitDx=0;exitDy=0;entryX=0.75;entryY=1;entryDx=0;entryDy=0;strokeColor=#000000;" parent="1" source="10" target="7" edge="1">
                    <mxGeometry relative="1" as="geometry">
                        <Array as="points">
                            <mxPoint x="400" y="241"/>
                            <mxPoint x="400" y="326"/>
                            <mxPoint x="140" y="326"/>
                        </Array>
                    </mxGeometry>
                </mxCell>
                <mxCell id="10" value="State publisher" style="rounded=0;whiteSpace=wrap;html=1;shadow=0;sketch=0;comic=0;labelBackgroundColor=none;fillColor=#f5f5f5;fontColor=#333333;strokeColor=#000000;" parent="1" vertex="1">
                    <mxGeometry x="440" y="196" width="120" height="60" as="geometry"/>
                </mxCell>
                <mxCell id="11" value="&lt;font color=&quot;#cc0000&quot;&gt;Motion planning pkg&lt;/font&gt;" style="text;html=1;align=center;verticalAlign=middle;whiteSpace=wrap;rounded=0;shadow=0;sketch=0;comic=0;labelBackgroundColor=none;fillColor=#f5f5f5;fontColor=#333333;strokeColor=#000000;" parent="1" vertex="1">
                    <mxGeometry x="45" y="186" width="130" height="30" as="geometry"/>
                </mxCell>
                <mxCell id="12" value="&lt;font color=&quot;#cc0000&quot;&gt;Hardware control&lt;/font&gt;" style="text;html=1;align=center;verticalAlign=middle;whiteSpace=wrap;rounded=0;shadow=0;sketch=0;comic=0;labelBackgroundColor=none;fillColor=#f5f5f5;fontColor=#333333;strokeColor=#000000;" parent="1" vertex="1">
                    <mxGeometry x="600" y="186" width="130" height="30" as="geometry"/>
                </mxCell>
                <mxCell id="13" value="&lt;font color=&quot;#cc0000&quot;&gt;Camera pkg&lt;/font&gt;" style="text;html=1;align=center;verticalAlign=middle;whiteSpace=wrap;rounded=0;shadow=0;sketch=0;comic=0;labelBackgroundColor=none;fillColor=#f5f5f5;fontColor=#333333;strokeColor=#000000;" parent="1" vertex="1">
                    <mxGeometry x="220" y="26" width="130" height="30" as="geometry"/>
                </mxCell>
                <mxCell id="14" value="Drivers" style="rounded=0;whiteSpace=wrap;html=1;shadow=0;sketch=0;comic=0;labelBackgroundColor=none;fillColor=#f5f5f5;fontColor=#333333;strokeColor=#000000;" parent="1" vertex="1">
                    <mxGeometry x="605" y="286" width="120" height="60" as="geometry"/>
                </mxCell>
                <mxCell id="16" value="" style="endArrow=classic;html=1;fontColor=default;exitX=0;exitY=0.5;exitDx=0;exitDy=0;entryX=1;entryY=0.5;entryDx=0;entryDy=0;shadow=0;sketch=0;comic=0;labelBackgroundColor=none;fillColor=#f5f5f5;strokeColor=#000000;" parent="1" source="6" target="7" edge="1">
                    <mxGeometry width="50" height="50" relative="1" as="geometry">
                        <mxPoint x="400" y="446" as="sourcePoint"/>
                        <mxPoint x="450" y="396" as="targetPoint"/>
                    </mxGeometry>
                </mxCell>
                <mxCell id="21" value="" style="endArrow=classic;startArrow=classic;html=1;fontColor=default;exitX=0;exitY=0.5;exitDx=0;exitDy=0;entryX=1;entryY=0.5;entryDx=0;entryDy=0;shadow=0;sketch=0;comic=0;labelBackgroundColor=none;fillColor=#f5f5f5;strokeColor=#000000;" parent="1" source="14" target="9" edge="1">
                    <mxGeometry width="50" height="50" relative="1" as="geometry">
                        <mxPoint x="400" y="446" as="sourcePoint"/>
                        <mxPoint x="450" y="396" as="targetPoint"/>
                    </mxGeometry>
                </mxCell>
                <mxCell id="22" value="" style="endArrow=classic;startArrow=classic;html=1;fontColor=default;exitX=0.5;exitY=0;exitDx=0;exitDy=0;entryX=0.5;entryY=1;entryDx=0;entryDy=0;shadow=0;sketch=0;comic=0;labelBackgroundColor=none;fillColor=#f5f5f5;strokeColor=#000000;" parent="1" source="9" target="10" edge="1">
                    <mxGeometry width="50" height="50" relative="1" as="geometry">
                        <mxPoint x="400" y="446" as="sourcePoint"/>
                        <mxPoint x="450" y="396" as="targetPoint"/>
                    </mxGeometry>
                </mxCell>
                <mxCell id="23" value="" style="endArrow=classic;startArrow=classic;html=1;fontColor=default;exitX=1;exitY=0.5;exitDx=0;exitDy=0;entryX=0;entryY=0.5;entryDx=0;entryDy=0;shadow=0;sketch=0;comic=0;labelBackgroundColor=none;fillColor=#f5f5f5;strokeColor=#000000;" parent="1" source="4" target="3" edge="1">
                    <mxGeometry width="50" height="50" relative="1" as="geometry">
                        <mxPoint x="400" y="446" as="sourcePoint"/>
                        <mxPoint x="450" y="396" as="targetPoint"/>
                    </mxGeometry>
                </mxCell>
                <mxCell id="25" value="" style="endArrow=classic;startArrow=classic;html=1;fontColor=default;exitX=0.5;exitY=1;exitDx=0;exitDy=0;entryX=0.5;entryY=0;entryDx=0;entryDy=0;shadow=0;sketch=0;comic=0;labelBackgroundColor=none;fillColor=#f5f5f5;strokeColor=#000000;" parent="1" source="4" target="6" edge="1">
                    <mxGeometry width="50" height="50" relative="1" as="geometry">
                        <mxPoint x="400" y="446" as="sourcePoint"/>
                        <mxPoint x="450" y="396" as="targetPoint"/>
                    </mxGeometry>
                </mxCell>
            </root>
        </mxGraphModel>
    </diagram>
</mxfile>